<svg width="129" height="27" viewBox="0 0 129 27" fill="none" xmlns="http://www.w3.org/2000/svg">
<path d="M1.42 20V5.9H6.94C9.34 5.9 11.2 6.51333 12.52 7.74C13.84 8.95333 14.5 10.6867 14.5 12.94C14.5 15.1933 13.84 16.9333 12.52 18.16C11.2 19.3867 9.34 20 6.94 20H1.42ZM4.52 17.46H6.76C9.76 17.46 11.26 15.9533 11.26 12.94C11.26 9.94 9.76 8.44 6.76 8.44H4.52V17.46ZM21.7483 20.22C20.5883 20.22 19.5883 20.0133 18.7483 19.6C17.9216 19.1733 17.2816 18.58 16.8283 17.82C16.3883 17.0467 16.1683 16.14 16.1683 15.1C16.1683 14.0867 16.3816 13.2 16.8083 12.44C17.2483 11.6667 17.8416 11.0667 18.5883 10.64C19.3483 10.2 20.2216 9.98 21.2083 9.98C22.6349 9.98 23.7683 10.4333 24.6083 11.34C25.4483 12.2333 25.8683 13.4467 25.8683 14.98V15.74H19.0483C19.1549 16.5133 19.4349 17.08 19.8883 17.44C20.3549 17.7867 20.9949 17.96 21.8083 17.96C22.3416 17.96 22.8816 17.88 23.4283 17.72C23.9749 17.56 24.4683 17.3133 24.9083 16.98L25.7083 19C25.2149 19.3733 24.6083 19.6733 23.8883 19.9C23.1816 20.1133 22.4683 20.22 21.7483 20.22ZM21.3283 11.98C20.6883 11.98 20.1683 12.1733 19.7683 12.56C19.3816 12.9467 19.1416 13.4867 19.0483 14.18H23.3683C23.2883 12.7133 22.6083 11.98 21.3283 11.98ZM27.6648 20V10.18H30.6248V11.6C30.9182 11.0933 31.3182 10.7 31.8248 10.42C32.3448 10.1267 32.9448 9.98 33.6248 9.98C34.3182 9.98 34.9048 10.1333 35.3848 10.44C35.8782 10.7467 36.2515 11.2133 36.5048 11.84C36.8115 11.2533 37.2515 10.8 37.8248 10.48C38.4115 10.1467 39.0582 9.98 39.7648 9.98C40.8848 9.98 41.7182 10.32 42.2648 11C42.8115 11.6667 43.0848 12.7 43.0848 14.1V20H40.0648V14.2C40.0648 13.5467 39.9582 13.0733 39.7448 12.78C39.5448 12.4733 39.1982 12.32 38.7048 12.32C38.1315 12.32 37.6848 12.52 37.3648 12.92C37.0448 13.32 36.8848 13.8867 36.8848 14.62V20H33.8648V14.2C33.8648 13.5467 33.7582 13.0733 33.5448 12.78C33.3315 12.4733 32.9848 12.32 32.5048 12.32C31.9315 12.32 31.4848 12.52 31.1648 12.92C30.8448 13.32 30.6848 13.8867 30.6848 14.62V20H27.6648ZM50.1183 20.22C49.0649 20.22 48.1449 20.0133 47.3583 19.6C46.5849 19.1733 45.9849 18.58 45.5583 17.82C45.1316 17.0467 44.9183 16.1333 44.9183 15.08C44.9183 14.04 45.1316 13.14 45.5583 12.38C45.9849 11.6067 46.5849 11.0133 47.3583 10.6C48.1449 10.1867 49.0649 9.98 50.1183 9.98C51.1716 9.98 52.0849 10.1867 52.8583 10.6C53.6449 11.0133 54.2516 11.6067 54.6783 12.38C55.1183 13.14 55.3383 14.04 55.3383 15.08C55.3383 16.1333 55.1183 17.0467 54.6783 17.82C54.2516 18.58 53.6449 19.1733 52.8583 19.6C52.0849 20.0133 51.1716 20.22 50.1183 20.22ZM50.1183 17.96C50.7583 17.96 51.2783 17.7267 51.6783 17.26C52.0916 16.7933 52.2983 16.0667 52.2983 15.08C52.2983 14.1067 52.0916 13.3933 51.6783 12.94C51.2783 12.4733 50.7583 12.24 50.1183 12.24C49.4783 12.24 48.9583 12.4733 48.5583 12.94C48.1583 13.3933 47.9583 14.1067 47.9583 15.08C47.9583 16.0667 48.1583 16.7933 48.5583 17.26C48.9583 17.7267 49.4783 17.96 50.1183 17.96Z" fill="#4E96BE"/>
<path d="M57.4356 20V5.9H63.8956C65.4023 5.9 66.5623 6.22667 67.3756 6.88C68.2023 7.53333 68.6156 8.42667 68.6156 9.56C68.6156 10.3067 68.429 10.9533 68.0556 11.5C67.6823 12.0333 67.1623 12.4333 66.4956 12.7C67.2956 12.9267 67.909 13.3267 68.3356 13.9C68.7756 14.4733 68.9956 15.18 68.9956 16.02C68.9956 17.2733 68.5556 18.2533 67.6756 18.96C66.809 19.6533 65.6223 20 64.1156 20H57.4356ZM60.3956 11.7H63.3556C64.8756 11.7 65.6356 11.1133 65.6356 9.94C65.6356 8.78 64.8756 8.2 63.3556 8.2H60.3956V11.7ZM60.3956 17.7H63.6956C64.4956 17.7 65.0823 17.5467 65.4556 17.24C65.829 16.9333 66.0156 16.4667 66.0156 15.84C66.0156 15.2267 65.829 14.7667 65.4556 14.46C65.0823 14.1533 64.4956 14 63.6956 14H60.3956V17.7ZM75.8019 20.22C74.7485 20.22 73.8285 20.0133 73.0419 19.6C72.2685 19.1733 71.6685 18.58 71.2419 17.82C70.8152 17.0467 70.6019 16.1333 70.6019 15.08C70.6019 14.04 70.8152 13.14 71.2419 12.38C71.6685 11.6067 72.2685 11.0133 73.0419 10.6C73.8285 10.1867 74.7485 9.98 75.8019 9.98C76.8552 9.98 77.7685 10.1867 78.5419 10.6C79.3285 11.0133 79.9352 11.6067 80.3619 12.38C80.8019 13.14 81.0219 14.04 81.0219 15.08C81.0219 16.1333 80.8019 17.0467 80.3619 17.82C79.9352 18.58 79.3285 19.1733 78.5419 19.6C77.7685 20.0133 76.8552 20.22 75.8019 20.22ZM75.8019 17.96C76.4419 17.96 76.9619 17.7267 77.3619 17.26C77.7752 16.7933 77.9819 16.0667 77.9819 15.08C77.9819 14.1067 77.7752 13.3933 77.3619 12.94C76.9619 12.4733 76.4419 12.24 75.8019 12.24C75.1619 12.24 74.6419 12.4733 74.2419 12.94C73.8419 13.3933 73.6419 14.1067 73.6419 15.08C73.6419 16.0667 73.8419 16.7933 74.2419 17.26C74.6419 17.7267 75.1619 17.96 75.8019 17.96ZM87.5792 20.22C86.5259 20.22 85.6059 20.0133 84.8192 19.6C84.0459 19.1733 83.4459 18.58 83.0192 17.82C82.5926 17.0467 82.3792 16.1333 82.3792 15.08C82.3792 14.04 82.5926 13.14 83.0192 12.38C83.4459 11.6067 84.0459 11.0133 84.8192 10.6C85.6059 10.1867 86.5259 9.98 87.5792 9.98C88.6326 9.98 89.5459 10.1867 90.3192 10.6C91.1059 11.0133 91.7126 11.6067 92.1392 12.38C92.5792 13.14 92.7992 14.04 92.7992 15.08C92.7992 16.1333 92.5792 17.0467 92.1392 17.82C91.7126 18.58 91.1059 19.1733 90.3192 19.6C89.5459 20.0133 88.6326 20.22 87.5792 20.22ZM87.5792 17.96C88.2192 17.96 88.7392 17.7267 89.1392 17.26C89.5526 16.7933 89.7592 16.0667 89.7592 15.08C89.7592 14.1067 89.5526 13.3933 89.1392 12.94C88.7392 12.4733 88.2192 12.24 87.5792 12.24C86.9392 12.24 86.4192 12.4733 86.0192 12.94C85.6192 13.3933 85.4192 14.1067 85.4192 15.08C85.4192 16.0667 85.6192 16.7933 86.0192 17.26C86.4192 17.7267 86.9392 17.96 87.5792 17.96ZM94.6366 20V5.9H97.6566V14.24H97.6966L101.317 10.18H104.897L100.737 14.88L105.097 20H101.457L97.6966 15.76H97.6566V20H94.6366Z" fill="#202224"/>
</svg>
